<svg width="24" height="24" fill="none" xmlns="http://www.w3.org/2000/svg"><path fill-rule="evenodd" clip-rule="evenodd" d="M16.352 5.83a4.626 4.626 0 0 0-9.21.619v.458H3.186a.559.559 0 0 0-.54.416c-.01.037-.054.211-.108.492-.283 1.445-.847 5.719 1.505 8.759l.003.003c1.597 2.062 4.188 3.108 7.723 3.108h.003c3.538 0 6.144-1.046 7.728-3.11v-.001l.002-.002c2.348-3.04 1.774-7.312 1.497-8.757a12.22 12.22 0 0 0-.105-.492.56.56 0 0 0-.541-.416h-3.958v-.458c0-.209-.014-.415-.042-.62Zm.042 2.194v2.114a.558.558 0 1 1-1.118 0V8.024H8.26v2.114a.558.558 0 1 1-1.117 0V8.024H3.637a13.881 13.881 0 0 0-.16 1.077c-.19 1.75-.19 4.675 1.449 6.789l.002.002c1.374 1.777 3.673 2.676 6.84 2.676h.003c3.164 0 5.464-.901 6.84-2.675l.003-.003c1.63-2.12 1.635-5.042 1.447-6.79a13.638 13.638 0 0 0-.154-1.054l-.005-.022h-3.508ZM15.22 5.83c.037.203.055.41.055.619v.458H8.26v-.458a3.507 3.507 0 0 1 6.557-1.737c.197.347.334.724.404 1.118Z" fill="#A7A7A7"/></svg>