<svg width="24" height="24" viewBox="0 0 24 24" fill="none" xmlns="http://www.w3.org/2000/svg">
<circle cx="12" cy="12" r="11" stroke="#A7A7A7" stroke-width="1.2"/>
<path d="M8.5308 15.3869H4.53741V14.4818H5.99635V9.70202L4.5 10.1027V9.15051L7.08121 8.5V14.4818H8.5308V15.3869Z" fill="#A7A7A7"/>
<path d="M10.8829 11.8421V11.8232C10.0942 11.4461 9.69983 10.9009 9.69983 10.1875C9.69983 9.69731 9.89778 9.29663 10.2937 8.98552C10.6896 8.67127 11.1993 8.51414 11.8228 8.51414C12.387 8.51414 12.85 8.66027 13.2116 8.95253C13.5732 9.24478 13.754 9.62031 13.754 10.0791C13.754 10.827 13.3394 11.4084 12.5102 11.8232V11.8421C13.4703 12.1941 13.9504 12.8037 13.9504 13.671C13.9504 14.2304 13.74 14.6751 13.3191 15.0051C12.8983 15.335 12.3122 15.5 11.5609 15.5C10.953 15.5 10.4527 15.3366 10.0599 15.0098C9.67021 14.6829 9.47537 14.2587 9.47537 13.737C9.47537 12.8697 9.94454 12.238 10.8829 11.8421ZM12.6972 10.2441C12.6972 9.97071 12.6115 9.75544 12.44 9.59832C12.2717 9.43805 12.041 9.35791 11.748 9.35791C11.4736 9.35791 11.2414 9.44119 11.0512 9.60774C10.8611 9.77116 10.766 9.98013 10.766 10.2347C10.766 10.7532 11.0855 11.1444 11.7246 11.4084C12.373 11.1382 12.6972 10.7501 12.6972 10.2441ZM11.6685 12.3182C10.9141 12.623 10.5368 13.063 10.5368 13.638C10.5368 13.9366 10.646 14.1817 10.8642 14.3734C11.0855 14.5651 11.3754 14.6609 11.7339 14.6609C12.0737 14.6609 12.3512 14.5667 12.5663 14.3781C12.7845 14.1896 12.8936 13.9523 12.8936 13.6663C12.8936 13.063 12.4852 12.6136 11.6685 12.3182Z" fill="#A7A7A7"/>
<path d="M19.5 12.5925H17.6529V14.4545H16.8814V12.5925H15.0343V11.8147H16.8814V9.94808H17.6529V11.8147H19.5V12.5925Z" fill="#A7A7A7"/>
</svg>
