<svg width="24" height="24" fill="none" xmlns="http://www.w3.org/2000/svg"><path fill-rule="evenodd" clip-rule="evenodd" d="M3.333 5C2.597 5 2 5.597 2 6.333v11.334C2 18.403 2.597 19 3.333 19h17.334c.736 0 1.333-.597 1.333-1.333V6.333C22 5.597 21.403 5 20.667 5H3.333zM4 5.667c-.736 0-1.333.597-1.333 1.333v10c0 .736.597 1.333 1.333 1.333h16c.736 0 1.333-.597 1.333-1.333V7c0-.736-.597-1.333-1.333-1.333H4z" fill="#A7A7A7"/><path d="M4.667 7.667H4v8C4 16.403 4.597 17 5.333 17h9.334c.736 0 1.333-.597 1.333-1.333v-8h-.667V15c0 .736-.597 1.333-1.333 1.333H6A1.333 1.333 0 014.667 15V7.667z" fill="#A7A7A7"/><path d="M8 8.333h4V9H8v-.667z" fill="#A7A7A7"/><path fill-rule="evenodd" clip-rule="evenodd" d="M18.667 10.333a1.333 1.333 0 100-2.666 1.333 1.333 0 000 2.666zm0-.666a.667.667 0 100-1.334.667.667 0 000 1.334zM18.667 15.667a1.333 1.333 0 100-2.667 1.333 1.333 0 000 2.667zm0-.667a.667.667 0 100-1.333.667.667 0 000 1.333z" fill="#A7A7A7"/><path clip-rule="evenodd" d="M3.333 5C2.597 5 2 5.597 2 6.333v11.334C2 18.403 2.597 19 3.333 19h17.334c.736 0 1.333-.597 1.333-1.333V6.333C22 5.597 21.403 5 20.667 5H3.333zM4 5.667c-.736 0-1.333.597-1.333 1.333v10c0 .736.597 1.333 1.333 1.333h16c.736 0 1.333-.597 1.333-1.333V7c0-.736-.597-1.333-1.333-1.333H4z" stroke="#A7A7A7" stroke-width=".3"/><path d="M4.667 7.667H4v8C4 16.403 4.597 17 5.333 17h9.334c.736 0 1.333-.597 1.333-1.333v-8h-.667V15c0 .736-.597 1.333-1.333 1.333H6A1.333 1.333 0 014.667 15V7.667z" stroke="#A7A7A7" stroke-width=".3"/><path d="M8 8.333h4V9H8v-.667z" stroke="#A7A7A7" stroke-width=".3"/><path clip-rule="evenodd" d="M18.667 10.333a1.333 1.333 0 100-2.666 1.333 1.333 0 000 2.666zm0-.666a.667.667 0 100-1.334.667.667 0 000 1.334zM18.667 15.667a1.333 1.333 0 100-2.667 1.333 1.333 0 000 2.667zm0-.667a.667.667 0 100-1.333.667.667 0 000 1.333z" stroke="#A7A7A7" stroke-width=".3"/></svg>