<svg width="24" height="24" fill="none" xmlns="http://www.w3.org/2000/svg"><path d="M11.889 9.222C10.963 9.222 9.11 10 9.11 12s1.667 2.778 2.778 2.778" stroke="#A9A8B0" stroke-linecap="round"/><path d="M15.867 19.88V9.696C14.53 9.048 13.6 7.63 13.6 5.981c0-1.433.7-2.692 1.758-3.424a.325.325 0 0 1 .51.281v1.44c0 .94.724 1.703 1.619 1.703.894 0 1.62-.763 1.62-1.704V2.838a.325.325 0 0 1 .509-.28c1.058.73 1.757 1.99 1.757 3.423 0 1.65-.93 3.067-2.267 3.714v10.186a1.62 1.62 0 1 1-3.239 0Z" stroke="#A9A8B0" stroke-width="1.2" stroke-linecap="round" stroke-linejoin="round"/><path d="M13.8 4c-.18-.316-.582-.795-.898-.885-.766-.18-1.532-.135-2.254.045-.405.135-.586.54-.586.946-.045.586-.405 1.082-.901 1.353-.676.315-1.217-.18-1.758-.586-.225-.136-.541-.136-.766-.045-.812.405-1.398 1.036-1.848 1.803-.09.225-.18.45-.045.676.27.496.676.991.63 1.577-.045.361-.18.722-.45.947-.27.18-.586.225-.857.27-1.081.045-1.127 1.308-1.036 2.119.052.283.082.569.09.856.045.722.901.767 1.442.947.27.09.586.27.721.586.136.36.226.766.045 1.127-.18.36-.495.676-.63 1.082-.09.405.18.676.405.991.45.541.902.992 1.533 1.307a.774.774 0 0 0 .766 0c.36-.225.631-.54 1.082-.586.54-.09 1.127.09 1.397.631.18.406.18.857.36 1.263.136.27.406.405.677.45.811.18 1.577.18 2.344-.09.225-.09.405-.225.45-.405.18-.361 0-.812.226-1.172.135-.27.36-.451.63-.586L15 18.5" stroke="#A9A8B0" stroke-width="1.1" stroke-linecap="round" stroke-linejoin="round"/></svg>