<svg width="24" height="24" fill="none" xmlns="http://www.w3.org/2000/svg"><mask id="a" fill="#fff"><path fill-rule="evenodd" clip-rule="evenodd" d="M19.037 9.124h-3.438a1.926 1.926 0 00-1.926 1.926v9.913h7.29V11.05a1.926 1.926 0 00-1.926-1.926zm-3.438-1.037a2.963 2.963 0 00-2.963 2.963V22H22V11.05a2.963 2.963 0 00-2.963-2.963h-3.438zM3.037 16.08v4.883h7.29V16.08h-7.29zm-.296-1.036a.74.74 0 00-.741.74V22h9.364v-6.216a.74.74 0 00-.741-.74H2.74z"/><path fill-rule="evenodd" clip-rule="evenodd" d="M4.74 6.515v8.47h3.884v-8.47H4.74zm-.297-1.037a.74.74 0 00-.74.741v9.803H9.66V6.219a.74.74 0 00-.74-.74H4.442z"/><path fill-rule="evenodd" clip-rule="evenodd" d="M7.773 3.037h-.627c-.859 0-1.555.696-1.555 1.556v.718h2.182V3.037zM7.146 2a2.593 2.593 0 00-2.592 2.593v1.755H8.81V2.74A.74.74 0 008.07 2h-.924z"/></mask><path fill-rule="evenodd" clip-rule="evenodd" d="M19.037 9.124h-3.438a1.926 1.926 0 00-1.926 1.926v9.913h7.29V11.05a1.926 1.926 0 00-1.926-1.926zm-3.438-1.037a2.963 2.963 0 00-2.963 2.963V22H22V11.05a2.963 2.963 0 00-2.963-2.963h-3.438zM3.037 16.08v4.883h7.29V16.08h-7.29zm-.296-1.036a.74.74 0 00-.741.74V22h9.364v-6.216a.74.74 0 00-.741-.74H2.74z" fill="#A7A7A7"/><path fill-rule="evenodd" clip-rule="evenodd" d="M4.74 6.515v8.47h3.884v-8.47H4.74zm-.297-1.037a.74.74 0 00-.74.741v9.803H9.66V6.219a.74.74 0 00-.74-.74H4.442z" fill="#A7A7A7"/><path fill-rule="evenodd" clip-rule="evenodd" d="M7.773 3.037h-.627c-.859 0-1.555.696-1.555 1.556v.718h2.182V3.037zM7.146 2a2.593 2.593 0 00-2.592 2.593v1.755H8.81V2.74A.74.74 0 008.07 2h-.924z" fill="#A7A7A7"/><path d="M13.673 20.963h-1.4v1.4h1.4v-1.4zm7.29 0v1.4h1.4v-1.4h-1.4zM12.636 22h-1.4v1.4h1.4V22zM22 22v1.4h1.4V22H22zM3.037 20.963h-1.4v1.4h1.4v-1.4zm0-4.883v-1.4h-1.4v1.4h1.4zm7.29 4.883v1.4h1.4v-1.4h-1.4zm0-4.883h1.4v-1.4h-1.4v1.4zM2 22H.6v1.4H2V22zm9.364 0v1.4h1.4V22h-1.4zM4.74 14.985h-1.4v1.4h1.4v-1.4zm0-8.47v-1.4h-1.4v1.4h1.4zm3.884 8.47v1.4h1.4v-1.4h-1.4zm0-8.47h1.4v-1.4h-1.4v1.4zm-4.922 9.507h-1.4v1.4h1.4v-1.4zm5.96 0v1.4h1.4v-1.4h-1.4zM7.771 3.037h1.4v-1.4h-1.4v1.4zM5.592 5.311h-1.4v1.4h1.4v-1.4zm2.182 0v1.4h1.4v-1.4h-1.4zm-3.22 1.037h-1.4v1.4h1.4v-1.4zm4.257 0v1.4h1.4v-1.4h-1.4zm6.79 4.176h3.437v-2.8h-3.438v2.8zm-.527.526c0-.29.236-.526.526-.526v-2.8a3.326 3.326 0 00-3.326 3.326h2.8zm0 9.913V11.05h-2.8v9.913h2.8zm5.89-1.4h-7.29v2.8h7.29v-2.8zm-1.4-8.513v9.913h2.8V11.05h-2.8zm-.526-.526c.29 0 .526.236.526.526h2.8a3.326 3.326 0 00-3.326-3.326v2.8zm-5 .526c0-.863.7-1.563 1.562-1.563v-2.8a4.363 4.363 0 00-4.363 4.363h2.8zm5-1.563c.863 0 1.563.7 1.563 1.563h2.8a4.363 4.363 0 00-4.363-4.363v2.8zm-3.438 0h3.438v-2.8h-3.438v2.8zM14.036 22V11.05h-2.8V22h2.8zM22 20.6h-9.364v2.8H22v-2.8zm-1.4-9.55V22h2.8V11.05h-2.8zM4.437 20.963V16.08h-2.8v4.883h2.8zm5.89-1.4h-7.29v2.8h7.29v-2.8zm-1.4-3.482v4.882h2.8V16.08h-2.8zm-5.89 1.4h7.29v-2.8h-7.29v2.8zm.363-1.697a.66.66 0 01-.66.66v-2.8a2.14 2.14 0 00-2.14 2.14h2.8zm7.223.66a.66.66 0 01-.66-.66h2.8a2.14 2.14 0 00-2.14-2.14v2.8zm-7.882 0h7.882v-2.8H2.74v2.8zM3.4 22v-6.216H.6V22h2.8zm7.964-1.4H2v2.8h9.364v-2.8zm-1.4-4.816V22h2.8v-6.216h-2.8zm-3.824-.799v-8.47h-2.8v8.47h2.8zm2.484-1.4H4.74v2.8h3.884v-2.8zm-1.4-7.07v8.47h2.8v-8.47h-2.8zm-2.484 1.4h3.884v-2.8H4.74v2.8zm.362-1.696a.66.66 0 01-.659.66v-2.8a2.14 2.14 0 00-2.14 2.14h2.8zm3.818.66a.66.66 0 01-.659-.66h2.8a2.14 2.14 0 00-2.14-2.14v2.8zm-4.477 0H8.92v-2.8H4.443v2.8zm.66 9.143V6.219h-2.8v9.803h2.8zm4.558-1.4H3.702v2.8h5.96v-2.8zm-1.4-8.403v9.803h2.8V6.219h-2.8zM7.146 4.437h.627v-2.8h-.627v2.8zm-.155.156c0-.086.07-.156.155-.156v-2.8a2.956 2.956 0 00-2.955 2.956h2.8zm0 .718v-.718h-2.8v.718h2.8zm.782-1.4H5.59v2.8h2.182v-2.8zm-1.4-.874v2.274h2.8V3.037h-2.8zm-.42 1.556c0-.66.535-1.193 1.193-1.193V.6a3.993 3.993 0 00-3.992 3.993h2.8zM8.07 3.4a.66.66 0 01-.66-.66h2.8A2.14 2.14 0 008.07.6v2.8zm-.923 0h.923V.6h-.923v2.8zM5.954 6.348V4.593h-2.8v1.755h2.8zm2.856-1.4H4.554v2.8H8.81v-2.8zM7.41 2.74v3.607h2.8V2.74h-2.8z" fill="#A7A7A7" mask="url(#a)"/></svg>