<svg width="24" height="24" fill="none" xmlns="http://www.w3.org/2000/svg"><path d="M11.382 3.453l9.902 2.238c1.042.214 1.196 1.41.43 2.145l-8.032 9.013a.483.483 0 01-.522.153L3.29 14.09c-.675 1.717-.767 3.188 1.011 4.23l9.197 2.637 7.418-8.737c-.306-.858-.666-3.97.459-5.47.337-.582.951-.166.614.416-.368.644-.306 4.288 0 4.931.092.215.061.43-.092.552l-7.817 9.227a.483.483 0 01-.521.154L3.964 19.3c-.03-.03-.092-.03-.123-.06-2.513-1.411-2.36-3.618-1.349-5.979.031-.061.123-.061.154-.122l8.277-9.473c.122-.153.275-.245.46-.214zm9.626 3.219l-9.564-2.146-7.541 8.644 9.227 2.76 7.817-8.768c.122-.153.398-.368.061-.49z" fill="#A7A7A7"/></svg>