<svg width="24" height="24" fill="none" xmlns="http://www.w3.org/2000/svg"><path d="M5.853 11.062h7.171V3.445c0-.245.2-.445.446-.445 2.338 0 4.476.958 6.013 2.494A8.618 8.618 0 0122 11.508v2.962c0 .935-.4 1.782-1.002 2.405-.268.267-.58.49-.913.646l.155.156c.424.4.669 1.002.669 1.648 0 .624-.245 1.225-.668 1.648-.424.401-1.025.668-1.649.668a2.4 2.4 0 01-1.648-.668 2.363 2.363 0 01-.69-1.648c0-.557.178-1.047.49-1.447h-6.548c.312.4.49.89.49 1.447 0 .624-.245 1.225-.668 1.648a2.4 2.4 0 01-1.648.668 2.4 2.4 0 01-1.648-.668 2.363 2.363 0 01-.69-1.648c0-.646.266-1.247.69-1.648.044-.067.089-.111.133-.156a3.145 3.145 0 01-.89-.646l-.023-.022a3.406 3.406 0 01-.98-2.383V8.278c0-.378-.156-.735-.423-1.002a1.43 1.43 0 00-1.025-.423H2.445A.447.447 0 012 6.408c0-.245.2-.446.445-.446h1.07c.645 0 1.224.267 1.648.69a2.31 2.31 0 01.69 1.626v2.784zm12.74 6.816h-.023c-.4 0-.735.178-1.002.423a1.43 1.43 0 00-.423 1.024c0 .379.156.735.423 1.002a1.43 1.43 0 001.024.424c.379 0 .758-.156 1.003-.424.267-.267.423-.623.423-1.002 0-.4-.156-.757-.423-1.024a1.43 1.43 0 00-1.003-.423zm-10.201 0h-.045c-.4 0-.735.178-1.002.423a1.527 1.527 0 00-.423 1.024c0 .379.178.735.423 1.002a1.43 1.43 0 001.025.424c.4 0 .757-.156 1.002-.424.267-.267.423-.623.423-1.002 0-.4-.156-.757-.423-1.024a1.418 1.418 0 00-.98-.423zm-.022-.891H18.615a2.48 2.48 0 001.737-.735 2.49 2.49 0 00.735-1.782v-2.495h-7.705l-7.529-.022v2.517c0 .69.267 1.314.713 1.76l.022.022a2.48 2.48 0 001.737.735h.045zm5.545-5.925h7.172A7.609 7.609 0 0018.86 6.14a7.606 7.606 0 00-4.945-2.227v7.15z" fill="#A7A7A7"/></svg>