<svg xmlns="http://www.w3.org/2000/svg" width="24" height="24" fill="none"><path fill="#A9A8B0" fill-rule="evenodd" d="M18.316 8.218a6.108 6.108 0 0 0 .233-1.678c0-3.48-2.894-6.24-6.39-6.24-3.496 0-6.39 2.76-6.39 6.24 0 .58.081 1.143.234 1.678C4.623 9.968 3.8 12.29 3.8 14.813c0 2.352.2 4.653 1.473 6.336 1.34 1.773 3.6 2.551 6.886 2.551s5.546-.778 6.886-2.55c1.272-1.684 1.473-3.985 1.473-6.337 0-2.522-.822-4.845-2.203-6.595Zm-1.223-.11a.682.682 0 0 0 .12.656c1.3 1.546 2.105 3.686 2.105 6.05 0 4.716-.895 7.686-7.159 7.686C5.895 22.5 5 19.53 5 14.813c0-2.363.805-4.503 2.105-6.05a.682.682 0 0 0 .12-.655 4.903 4.903 0 0 1-.256-1.568c0-2.783 2.324-5.04 5.19-5.04 2.867 0 5.19 2.257 5.19 5.04 0 .547-.09 1.074-.256 1.568ZM9.387 6.51c.277-.05.74-.246 1.168-.675.431-.432.808-1.083.882-2.002a2.811 2.811 0 0 0-2.05 2.677Zm3.538.103a4.035 4.035 0 0 1-.796-1.136c-.213.451-.49.83-.796 1.136-.541.54-1.193.877-1.742.978a2.81 2.81 0 0 0 5.205.02c-.574-.069-1.287-.414-1.871-.998Zm-.107-2.815A2.811 2.811 0 0 1 15 6.744v-.22c-.238 0-.791-.182-1.297-.688-.437-.437-.818-1.1-.885-2.037ZM8.288 6.54a3.91 3.91 0 1 1 5.637 3.508c.08.026.152.054.213.08.278.116.554.28.806.463.484.35 1.02.875 1.326 1.486.224.448.38.955.26 1.461a1.354 1.354 0 0 1-.89.986l-.014.005c-.6.215-1.186.044-1.565-.13a3.819 3.819 0 0 1-1.12-.813 3.887 3.887 0 0 1-.605-.81c-.169.304-.382.578-.606.81a3.819 3.819 0 0 1-1.12.813c-.378.174-.965.345-1.565.13l-.013-.005a1.354 1.354 0 0 1-.89-.986c-.12-.506.035-1.013.26-1.46.305-.612.841-1.136 1.326-1.487a4.096 4.096 0 0 1 .861-.486A3.91 3.91 0 0 1 8.287 6.54Zm3.234 4.596c.127.308.07.663-.096 1.004-.4.825-1.43 1.566-2.014 1.352a.449.449 0 0 0-.022-.008l-.02-.007c-.08-.029-.347-.184.015-.908.4-.798 1.557-1.597 2.037-1.518a.135.135 0 0 1 .1.085Zm3.737 2.356c-.583.214-1.614-.527-2.014-1.351v-.001c-.165-.341-.222-.696-.095-1.004a.135.135 0 0 1 .1-.085c.479-.079 1.637.72 2.036 1.518.363.724.095.88.015.908a.427.427 0 0 0-.041.014Z" clip-rule="evenodd"/></svg>