<svg width="24" height="24" fill="none" xmlns="http://www.w3.org/2000/svg"><path fill-rule="evenodd" clip-rule="evenodd" d="M7.153 3c-.395 0-.912.172-1.334.532-.44.377-.78.963-.78 1.768 0 .068.002.135.006.2h-.007v14c0 .361.127.734.322 1.04.194.306.49.598.875.732.315.11.738.163 1.093.192.367.03.714.036.902.036h10.731V21h-.5.5V4H19V3H7.153Zm4.308 17.5H8.23c-.17 0-.489-.006-.822-.033-.346-.028-.659-.075-.844-.14-.113-.039-.248-.147-.36-.323a1.002 1.002 0 0 1-.166-.504V7.17a2.22 2.22 0 0 0 1.115.329H17.961v13h-6.5Zm6.5-16.5v2.5H7.153c-.168 0-.461-.07-.702-.257-.219-.17-.413-.452-.413-.943 0-.495.198-.809.43-1.007C6.72 4.078 7.01 4 7.154 4h10.808Zm-7.291 6.09-.786-.548v7.915l.785-.547 4.308-3 .59-.41-.59-.41-4.308-3Zm3.146 3.41-2.932 2.043v-4.085l2.932 2.042Z" fill="#A7A7A7" stroke="#A7A7A7" stroke-width=".3"/></svg>