<svg width="24" height="24" fill="none" xmlns="http://www.w3.org/2000/svg"><path d="M5.636 8.636c0-.334.272-.606.606-.606h3.03a.606.606 0 010 1.212h-3.03a.606.606 0 01-.606-.606z" fill="#A7A7A7"/><path fill-rule="evenodd" clip-rule="evenodd" d="M6.242 8.03a.606.606 0 000 1.212h3.03a.606.606 0 000-1.212h-3.03zM15.333 14.335a2.669 2.669 0 100-5.337 2.669 2.669 0 000 5.337zm0 .968a3.636 3.636 0 100-7.273 3.636 3.636 0 000 7.273z" fill="#A7A7A7"/><path fill-rule="evenodd" clip-rule="evenodd" d="M17.484 5.968H5.226a2.258 2.258 0 00-2.258 2.258v6.881a2.258 2.258 0 002.258 2.259h12.258a3.548 3.548 0 003.548-3.549v-4.3a3.548 3.548 0 00-3.548-3.55zM5.226 5A3.226 3.226 0 002 8.226v6.881a3.226 3.226 0 003.226 3.226h12.258A4.516 4.516 0 0022 13.817v-4.3A4.516 4.516 0 0017.484 5H5.226z" fill="#A7A7A7"/><path d="M5.636 8.636c0-.334.272-.606.606-.606h3.03a.606.606 0 010 1.212h-3.03a.606.606 0 01-.606-.606z" stroke="#A7A7A7" stroke-width=".2"/><path clip-rule="evenodd" d="M6.242 8.03a.606.606 0 000 1.212h3.03a.606.606 0 000-1.212h-3.03zM15.333 14.335a2.669 2.669 0 100-5.337 2.669 2.669 0 000 5.337zm0 .968a3.636 3.636 0 100-7.273 3.636 3.636 0 000 7.273z" stroke="#A7A7A7" stroke-width=".2"/><path clip-rule="evenodd" d="M17.484 5.968H5.226a2.258 2.258 0 00-2.258 2.258v6.881a2.258 2.258 0 002.258 2.259h12.258a3.548 3.548 0 003.548-3.549v-4.3a3.548 3.548 0 00-3.548-3.55zM5.226 5A3.226 3.226 0 002 8.226v6.881a3.226 3.226 0 003.226 3.226h12.258A4.516 4.516 0 0022 13.817v-4.3A4.516 4.516 0 0017.484 5H5.226z" stroke="#A7A7A7" stroke-width=".2"/></svg>