<svg width="24" height="24" fill="none" xmlns="http://www.w3.org/2000/svg"><g clip-path="url(#a)"><path d="M21.71 8.743a1.204 1.204 0 0 0-.916-.42h-1.88l.315-2.967A1.205 1.205 0 0 0 18.032 4H5.968A1.206 1.206 0 0 0 4.77 5.349l.315 2.974H3.206a1.206 1.206 0 0 0-1.192 1.389l1.204 7.825a1.022 1.022 0 0 0 1.015.871h1.128l-.521 2.085a.36.36 0 1 0 .699.175l.564-2.26h11.793l.565 2.26a.361.361 0 1 0 .7-.175l-.522-2.085h1.128a1.022 1.022 0 0 0 1.015-.87l1.204-7.826a1.205 1.205 0 0 0-.277-.969Zm-15.834 4.49c0-.011.003-.023.007-.035a.111.111 0 0 1 .04-.056c.063-.048.127-.095.193-.141l.026-.017c.052-.036.105-.071.158-.105l.075-.046a6.229 6.229 0 0 1 .316-.181l.083-.044a5.628 5.628 0 0 1 .396-.184l.098-.04a5.871 5.871 0 0 1 .32-.118l.118-.039.082-.025c.104-.03.21-.06.315-.086l.01-.003a6.62 6.62 0 0 1 .162-.036l.055-.012c.054-.012.108-.022.163-.032l.049-.009c.058-.01.117-.02.175-.028l.01-.001c.135-.02.27-.035.407-.047h.006c.182-.015.366-.023.55-.023h4.62a6.704 6.704 0 0 1 1.137.098l.05.008.137.027.09.019a5.835 5.835 0 0 1 .46.118l.084.025c.07.021.138.044.206.067l.06.023c.05.017.098.035.146.054l.094.038a6.512 6.512 0 0 1 .417.189l.054.028c.22.114.433.241.637.382l.004.003.068.047a.41.41 0 0 1 .17.332v1.31a.113.113 0 0 1-.113.113H5.989a.113.113 0 0 1-.113-.112v-1.46Zm-.272-8.348a.48.48 0 0 1 .364-.165h12.064a.486.486 0 0 1 .481.553l-.35 3.312-.372 3.51-.014-.008a6.61 6.61 0 0 0-.612-.302l-.082-.034a6.884 6.884 0 0 0-.236-.093l-.087-.033a7.075 7.075 0 0 0-.307-.102l-.076-.022a7.19 7.19 0 0 0-.665-.162l-.011-.003a7.331 7.331 0 0 0-.358-.059l-.043-.005a7.313 7.313 0 0 0-.339-.038l-.016-.002a1.787 1.787 0 0 0-.31-.028h-5.27c-.104 0-.206.01-.307.028H9.05a7.346 7.346 0 0 0-.747.103l-.006.001c-.12.024-.24.05-.36.079l-.035.009a7.085 7.085 0 0 0-.647.196 6.773 6.773 0 0 0-.37.143l-.067.029a6.698 6.698 0 0 0-.563.277l-.047.025-.36-3.411-.362-3.417a.48.48 0 0 1 .118-.381Zm15.67 4.717-1.204 7.826a.305.305 0 0 1-.303.26H4.233a.305.305 0 0 1-.303-.26L2.726 9.603a.486.486 0 0 1 .48-.56h1.955l.369 3.487a.418.418 0 0 1-.045.04.841.841 0 0 0-.329.663v1.46a.834.834 0 0 0 .833.834H18.01a.834.834 0 0 0 .833-.833v-1.31c0-.044-.003-.086-.008-.129-.001-.014-.004-.027-.006-.041a1.133 1.133 0 0 0-.016-.084l-.013-.048a1.069 1.069 0 0 0-.023-.074l-.018-.048a1.164 1.164 0 0 0-.094-.182l-.027-.041a1.164 1.164 0 0 0-.05-.066l-.028-.035a1.15 1.15 0 0 0-.07-.071c-.006-.007-.012-.014-.02-.02l-.002-.003.37-3.5h1.955a.485.485 0 0 1 .48.56Z" fill="#A7A7A7" stroke="#A7A7A7" stroke-width=".2"/></g><defs><clipPath id="a"><path fill="#fff" transform="translate(2 4)" d="M0 0h20v16.941H0z"/></clipPath></defs></svg>