<svg width="25" height="24" fill="none" xmlns="http://www.w3.org/2000/svg"><path d="M20.361 7.394a2.551 2.551 0 00-.734 2.109L16.104 12.8l-.34-3.677a1.697 1.697 0 00.126-2.52 1.691 1.691 0 00-1.204-.5l-1.28.001a6.72 6.72 0 00-.174-.181c-2.565-2.565-6.74-2.564-9.306.003-2.567 2.566-2.568 6.74-.003 9.306a6.543 6.543 0 003.154 1.754l-.089.949a1.56 1.56 0 001.551 1.701l6.49-.002a1.562 1.562 0 001.15-.509c.295-.323.44-.757.4-1.193l-.037-.405a.514.514 0 00.043-.042l5.336-5.692a2.551 2.551 0 002.105-.735.527.527 0 000-.746l-2.92-2.918a.527.527 0 00-.745 0zm-5.216-.046a.648.648 0 01-.458 1.105l-5.6.002a.643.643 0 01-.458-.19.643.643 0 010-.915.645.645 0 01.458-.19l5.6-.002c.173 0 .335.068.458.19zM4.669 14.486a5.532 5.532 0 01.002-7.815 5.535 5.535 0 017.154-.567l-2.738.001A1.704 1.704 0 007.825 8.95l-.65 6.974a5.494 5.494 0 01-2.506-1.438zm10.73 3.929a.497.497 0 01-.371.164l-6.49.002a.496.496 0 01-.37-.163.497.497 0 01-.13-.386l.796-8.54c.083.012.168.018.254.018l5.6-.002.052-.001.789 8.523a.498.498 0 01-.13.385zm7.441-7.797a1.52 1.52 0 01-.988.094.527.527 0 00-.506.152l-4.934 5.264-.185-1.999 4.329-4.05a.528.528 0 00.152-.51 1.519 1.519 0 01.093-.99l2.04 2.04z" fill="#A7A7A7"/></svg>