<svg width="24" height="24" fill="none" xmlns="http://www.w3.org/2000/svg"><path d="M3.543 4.585A5.2 5.2 0 017.273 3c1.353 0 2.71.531 3.739 1.585l.995 1.021.98-1.013a5.2 5.2 0 017.469 0c2.059 2.108 2.059 5.529 0 7.637l-.263.27-.976-.976.272-.279a4.06 4.06 0 000-5.675c-1.542-1.58-3.993-1.58-5.535 0L12.49 7.076a.68.68 0 01-.483.204.671.671 0 01-.484-.204l-1.478-1.513a3.868 3.868 0 00-2.771-1.188c-.998 0-1.993.398-2.764 1.188a4.06 4.06 0 000 5.675l7.19 7.388-.014.014 1.267 1.267-.477.489a.68.68 0 01-.484.204.67.67 0 01-.483-.204l-7.966-8.18c-2.056-2.11-2.059-5.523 0-7.63z" fill="#A7A7A7"/><path fill-rule="evenodd" clip-rule="evenodd" d="M19.6 16.6h-8V15h8v1.6z" fill="#A7A7A7"/><path fill-rule="evenodd" clip-rule="evenodd" d="M14.8 19.8v-8h1.6v8h-1.6z" fill="#A7A7A7"/></svg>