<svg width="24" height="24" fill="none" xmlns="http://www.w3.org/2000/svg"><path fill-rule="evenodd" clip-rule="evenodd" d="M14.63 7.636a2.492 2.492 0 00-3.912-1.32 2.49 2.49 0 00-.89 1.32h4.801zM9.897 5.965a3.296 3.296 0 015.554 1.645l.005.026h5.62a.514.514 0 010 1.029h-.857v3.16l.916-.916a.514.514 0 01.726.726l-1.642 1.643v4.185a2.056 2.056 0 01-2.055 2.056H5.83a2.056 2.056 0 01-2.056-2.055v-4.197l-1.63-1.63a.514.514 0 01.726-.727l.904.903V8.665h-.857a.514.514 0 010-1.028H9l.005-.026a3.298 3.298 0 01.893-1.645v-.001zm9.363 2.865H4.734v4.008a.516.516 0 010 .358v4.268a1.096 1.096 0 001.097 1.096h12.334a1.096 1.096 0 001.096-1.096v-4.305a.515.515 0 010-.285V8.83z" fill="#A7A7A7" stroke="#A7A7A7" stroke-width=".2"/></svg>