<svg width="24" height="24" fill="none" xmlns="http://www.w3.org/2000/svg"><path d="M12 22c-4.125 0-7.5-3.375-7.5-7.5S7.875 7 12 7s7.5 3.375 7.5 7.5S16.125 22 12 22zm0-14.063A6.562 6.562 0 005.437 14.5 6.562 6.562 0 0012 21.063a6.562 6.562 0 006.563-6.563A6.562 6.562 0 0012 7.937zm0 11.875A5.308 5.308 0 016.687 14.5 5.308 5.308 0 0112 9.187a5.308 5.308 0 015.313 5.313A5.308 5.308 0 0112 19.813zm0-9.687A4.348 4.348 0 007.625 14.5 4.348 4.348 0 0012 18.875a4.348 4.348 0 004.375-4.375A4.348 4.348 0 0012 10.125z" fill="#A7A7A7"/><path d="M12 7.938c-.125 0-.25-.063-.375-.125l-3.438-3.75c-.187-.188-.187-.438 0-.625l1.063-1.25C9.375 2.062 9.5 2 9.625 2h4.75c.125 0 .25.063.375.188l1.062 1.25a.568.568 0 010 .624l-3.437 3.75c-.125.063-.25.125-.375.125zm-2.813-4.25L12 6.75l2.812-3.063-.687-.75H9.812l-.625.75z" fill="#A7A7A7"/></svg>