<svg width="24" height="24" fill="none" xmlns="http://www.w3.org/2000/svg"><path d="M17.47 17.717c-3.033-.56-3.042-1.52-3.042-2.121v-.36c.727-.641 1.287-1.562 1.587-2.642.006 0 .01.04.017.04.926 0 1.142-1.922 1.142-2.202s.025-1.401-.912-1.401c2.016-5.444-3.326-7.606-7.337-4.804-1.654 0-1.787 2.402-1.179 4.804-.937 0-.899 1.12-.899 1.4 0 .281.215 2.203 1.142 2.203l.004-.04c.3 1.08.856 2.001 1.578 2.642v.36c0 .6 0 1.561-3.041 2.121C3.537 18.237 3 21 3 21h18s-.543-2.722-3.53-3.283z" stroke="#A7A7A7" stroke-width=".8" stroke-miterlimit="10" stroke-linejoin="round"/></svg>