<svg width="24" height="24" fill="none" xmlns="http://www.w3.org/2000/svg"><path d="M15.043 12.817a5.092 5.092 0 00-4.305-2.354c-1.75 0-3.36.88-4.305 2.354L4.156 16.37a3.215 3.215 0 00-.504 1.969c.048.698.313 1.349.768 1.881a3.215 3.215 0 001.74 1.052c.682.156 1.382.09 2.023-.192l.042-.019a6.363 6.363 0 015.067.019 3.218 3.218 0 002.024.192 3.216 3.216 0 001.74-1.051 3.215 3.215 0 00.768-1.882 3.214 3.214 0 00-.504-1.969l-2.277-3.552zm1.077 6.602a1.994 1.994 0 01-2.332.533 7.578 7.578 0 00-3.05-.64c-1.04 0-2.08.214-3.05.64l-.027.012a1.994 1.994 0 01-2.305-.544 1.995 1.995 0 01-.164-2.386L7.47 13.48a3.866 3.866 0 013.269-1.787c1.33 0 2.551.668 3.269 1.787l2.277 3.552c.48.75.414 1.71-.164 2.386zM4.77 12.813c.677-.26 1.191-.807 1.448-1.538a3.208 3.208 0 00-.056-2.211A3.21 3.21 0 004.72 7.385c-.681-.37-1.429-.43-2.105-.17-1.36.524-1.985 2.205-1.392 3.75.474 1.229 1.58 2.005 2.697 2.005.285 0 .572-.051.848-.158zm-2.397-2.29c-.35-.91-.042-1.879.685-2.158.132-.051.27-.076.412-.076.22 0 .445.06.663.178.391.213.704.582.88 1.04.176.457.192.94.044 1.36-.136.385-.395.668-.73.796-.726.28-1.603-.231-1.954-1.14zM9.187 10.03c1.701 0 3.085-1.577 3.085-3.515C12.272 4.577 10.888 3 9.187 3c-1.7 0-3.084 1.577-3.084 3.515 0 1.938 1.384 3.515 3.084 3.515zm0-5.799c1.022 0 1.854 1.025 1.854 2.284 0 1.26-.832 2.284-1.854 2.284-1.022 0-1.853-1.025-1.853-2.284 0-1.26.831-2.284 1.853-2.284zM14.514 10.893c.262.087.53.128.795.128 1.24 0 2.45-.903 2.91-2.29.266-.799.249-1.643-.049-2.378-.31-.769-.887-1.327-1.623-1.572-.737-.244-1.533-.142-2.242.287-.678.411-1.198 1.077-1.463 1.876-.56 1.684.19 3.456 1.672 3.949zm-.504-3.561c.173-.522.504-.951.932-1.21.396-.24.828-.302 1.216-.173.388.13.698.437.871.866.188.464.196 1.006.022 1.528-.345 1.04-1.31 1.66-2.148 1.382-.838-.279-1.239-1.352-.893-2.393zM21.01 10.483c-1.172-.867-2.927-.492-3.91.837-.983 1.33-.83 3.116.341 3.983.428.316.932.468 1.449.468.9 0 1.837-.46 2.463-1.305.982-1.329.829-3.116-.343-3.983zm-.647 3.25c-.58.785-1.562 1.045-2.189.58-.626-.463-.664-1.478-.085-2.261.385-.52.947-.81 1.466-.81.262 0 .513.075.724.23.625.464.663 1.479.084 2.262z" fill="#A7A7A7"/></svg>