<svg width="24" height="24" fill="none" xmlns="http://www.w3.org/2000/svg"><path d="M8.107 22a3.119 3.119 0 01-2.199-.919A3.077 3.077 0 015 18.898V7.235c0-.887.38-1.235.772-1.604.126-.127.264-.254.359-.423h-.064a1.02 1.02 0 01-.75-.317l-.042-.041A1.054 1.054 0 015 4.142V3.065c0-.285.116-.558.317-.748A1.02 1.02 0 016.067 2H17.85c.296 0 .56.116.75.317l.043.041c.17.19.275.433.275.707v1.077c0 .285-.116.56-.317.75a1.021 1.021 0 01-.75.316h-.063c.094.17.231.296.358.423.391.368.772.717.772 1.604v11.663a3.075 3.075 0 01-.909 2.184l-.032.031a3.08 3.08 0 01-2.166.887H8.107zM17.85 3.065H6.067v1.077H17.85V3.065zM8.107 20.923h7.704c.55 0 1.046-.21 1.416-.57l.02-.02a2.024 2.024 0 00.603-1.436V7.235c0-.422-.21-.623-.433-.834-.317-.296-.634-.592-.76-1.193H7.261c-.127.602-.444.898-.762 1.193-.222.21-.433.412-.433.834v11.663c0 .558.233 1.065.602 1.435.37.369.877.59 1.438.59z" fill="#A7A7A7"/><path fill-rule="evenodd" clip-rule="evenodd" d="M5.86 5.724l-.01.009c-.194.184-.368.35-.5.57-.13.223-.221.508-.221.932v11.663c0 .818.334 1.556.871 2.093a2.99 2.99 0 002.107.88h7.704a2.95 2.95 0 002.076-.849l.03-.031a2.948 2.948 0 00.872-2.094V7.235c0-.424-.09-.709-.221-.93-.132-.224-.306-.388-.501-.571l-.054-.054a1.879 1.879 0 01-.338-.409l-.109-.192h.284a.892.892 0 00.657-.276l.005-.005a.906.906 0 00.277-.656V3.065c0-.238-.09-.45-.24-.618l-.042-.042a.893.893 0 00-.657-.276H6.067a.892.892 0 00-.656.276l-.005.005a.908.908 0 00-.277.655v1.077c0 .239.09.45.24.62l.042.041a.895.895 0 00.657.276h.283l-.108.192a1.864 1.864 0 01-.339.409l-.044.044zm-.585-.874A1.054 1.054 0 015 4.142V3.065c0-.285.116-.558.317-.748A1.02 1.02 0 016.067 2H17.85c.296 0 .56.116.75.317l.043.041c.17.19.275.433.275.707v1.077c0 .285-.116.56-.317.75a1.021 1.021 0 01-.75.316h-.063c.025.045.053.088.085.129.07.092.151.172.23.251l.043.043.015.013c.386.364.757.715.757 1.59v11.664a3.075 3.075 0 01-.909 2.184l-.032.031a3.08 3.08 0 01-2.166.887H8.107a3.119 3.119 0 01-2.199-.919A3.077 3.077 0 015 18.898V7.235c0-.876.37-1.227.757-1.591l.014-.014.043-.042a2.41 2.41 0 00.231-.25c.031-.042.06-.085.086-.13h-.064a1.015 1.015 0 01-.75-.317l-.042-.041zm.664-1.913H17.85v.128H6.067v1.077H17.85V3.065h.13v1.206H5.94l-.001-1.334zm11.378 17.51c-.404.39-.944.609-1.506.606H8.107a2.15 2.15 0 01-1.529-.63 2.155 2.155 0 01-.64-1.526V7.235c0-.236.06-.415.153-.564.09-.143.208-.256.315-.358l.007-.007c.315-.293.604-.565.723-1.124l.02-.103h9.605l.021.103c.118.56.408.831.723 1.125l.006.006c.108.102.227.215.316.357.093.15.153.33.153.565v11.663c0 .595-.249 1.134-.64 1.526l-.023.022zm-.66-15.239H7.261c-.127.602-.444.898-.762 1.193-.222.21-.433.412-.433.834v11.663c0 .558.233 1.065.602 1.435.37.369.877.59 1.438.59h7.704c.55 0 1.046-.21 1.416-.57l.02-.02a2.024 2.024 0 00.603-1.436V7.235c0-.422-.21-.623-.432-.833-.317-.297-.635-.592-.762-1.194z" fill="#A7A7A7"/><path fill-rule="evenodd" clip-rule="evenodd" d="M5.327 9.822a.522.522 0 01.738 0l1.497 1.497a.313.313 0 00.443 0l.907-.907a1.357 1.357 0 011.919 0l.907.907a.313.313 0 00.442 0l.907-.907a1.357 1.357 0 011.92 0l.906.907a.313.313 0 00.443 0l1.497-1.497a.522.522 0 01.738.738l-1.497 1.497a1.357 1.357 0 01-1.92 0l-.906-.907a.313.313 0 00-.443 0l-.906.907a1.359 1.359 0 01-1.92 0l-.907-.907a.313.313 0 00-.442 0l-.907.907a1.357 1.357 0 01-1.92 0L5.328 10.56a.522.522 0 010-.737z" fill="#A7A7A7"/></svg>