<svg width="24" height="24" fill="none" xmlns="http://www.w3.org/2000/svg"><path d="M3.75 12.083c-.965.005-1.746-.815-1.75-1.835V7.067c-.009-1.016.755-1.845 1.716-1.868L11.385 5c.055 0 .107.01.158.027l2.955 1.183c.095.04.176.113.224.208h2.466c.064 0 .128.014.184.041l1.84.943c.146.077.24.231.24.408v.467h2.12c.235 0 .428.203.428.453 0 .249-.193.453-.429.453h-2.119v.104c0 .172-.094.331-.24.408l-1.673.857-.167.081a.438.438 0 01-.184.04h-2.406v.024c0 .199-.13.376-.31.435l-2.954.933a.579.579 0 01-.125.014h-.725v1.038a.908.908 0 01-.892.915h-.952v2.22h.467c.854 0 1.545.73 1.545 1.632 0 .902-.691 1.632-1.545 1.632H5.054c-.85.004-1.544-.721-1.548-1.623 0-.825.604-1.504 1.333-1.613v-4.197H3.75zM17.78 9.42l.814-.417V8.09l-.814-.417v1.745zm-3.003.353h2.145V7.325h-2.145v2.447zm-2.96 1.26l2.102-.67V6.94L11.818 6.1v4.93zm-2.05 2.094c.013 0 .035 0 .035-.01v-1.033h-.987v1.043h.953zM4.36 17.889c0 .19.073.371.202.507a.649.649 0 00.484.209h4.238c.377.004.682-.317.686-.712v-.004a.738.738 0 00-.201-.508l-.005-.009a.666.666 0 00-.48-.218H8.39c-.232.01-.425-.185-.433-.43v-4.64H5.684v4.635c.005.236-.171.435-.399.44h-.24c-.381.005-.686.33-.686.73zm6.6-6.712V5.915l-7.226.19c-.49.019-.88.445-.88.962v3.163c-.004.516.387.938.876.947H10.96z" fill="#A7A7A7"/><path d="M4.398 7.085c.236 0 .429.204.429.453v2.22c0 .25-.193.454-.43.454a.443.443 0 01-.428-.454v-2.22a.44.44 0 01.429-.453zM5.77 7.085c.236 0 .43.204.43.453v2.22c0 .25-.194.454-.43.454a.443.443 0 01-.429-.454v-2.22a.44.44 0 01.43-.453zM7.1 7.085c.236 0 .429.204.429.453v2.22c0 .25-.193.454-.43.454a.443.443 0 01-.428-.454v-2.22a.44.44 0 01.429-.453z" fill="#A7A7A7"/></svg>