<svg width="24" height="24" fill="none" xmlns="http://www.w3.org/2000/svg"><path d="M16.344 10.287l.599.458h0l.401.308a3.4 3.4 0 00.093.068L8.936 9.373m7.408.914a.795.795 0 01.311-.182l-.454-.348a.788.788 0 01-.073.324h0l-.014.03m.23.176a.79.79 0 00-.152.198m.152-.198l-.23-.176m0 0l-.118-.09h0l-.527-.403-.592-.454m1.237.947l-.107.233m-1.13-1.18a.794.794 0 01.319-.176l-.553-.423a.786.786 0 01-.046.385m.28.214a.785.785 0 00-.157.195m.157-.195l-.28-.214m0 0l-.644-.493h0l-.563-.431m1.207.924l1.595 1.535m-2.802-2.46a.795.795 0 01.36-.144l-3.641-2.787a.459.459 0 00-.58.02m3.861 2.912L9.906 5.359h0a.125.125 0 00-.158.005l-.22-.25m3.862 2.912l-4.603.484c-.07.065-.137.136-.204.216m.945-3.613c-.746.654-1.83 2.238-1.184 3.952a.806.806 0 01.028-.048h0c.068-.107.139-.204.211-.291m.945-3.613l.22.251a4.05 4.05 0 00-1.079 1.591c-.194.537-.265 1.14-.086 1.77m0 0c.052.184.125.369.223.555l.009.016.121.077m0 0c.038-.06.076-.114.115-.165m-.115.165l.115-.165m.097.165l.192-.12c-.065.07-.128.152-.188.248h0a.124.124 0 01-.176.046l-.001-.002a.125.125 0 01-.04-.172h.213zm0 0a.126.126 0 01.003.128h0l-.003-.128zm.542-.39c-.016.007-.03.015-.046.024-.105.059-.206.14-.303.245l4.002 1.632-.03-.034.03.034.357-.777a.799.799 0 00-.086-.121M9.69 8.982l.022.037h0a.79.79 0 01.107.272.74.74 0 01.31-.089c.672-.046 1.53.607 2.089 1.136l.146-.32M9.69 8.983c.159-.08.304-.104.414-.112h.001c.3-.021.603.063.879.186.278.123.55.296.799.48.21.155.407.322.581.483M9.69 8.982a2.253 2.253 0 01-.117-.22c.188-.095.367-.13.513-.141h0c.629-.047 1.324.313 1.924.77.17.13.326.262.465.387l-.11.24m0 0c.205.19.378.368.501.506m0 0l-.08.174.132-.115a.125.125 0 00.177.014h0a.125.125 0 00.013-.176h0a6.029 6.029 0 00-.129-.144l-.113.247zm0 0l.053.06-.133.114-.212.463m0 0a.796.796 0 01-.16-.141h0a4.385 4.385 0 00-.094-.106l-.29.632m.544-.385c.07.047.147.082.227.104m-.227-.104l-.241.524-.303-.14m0 0a.458.458 0 00.833.384m-.833-.383l.303.14a.125.125 0 00.062.165h0a.125.125 0 00.166-.061h0l.302.139m0 0l.298-.649a.798.798 0 01-.36-.015m.062.664l-.303-.14.241-.524m0 0l.213-.462.09-.196h0l.138-.301h0l.223-.486m0 0c.073.078.123.137.149.166m-.149-.166a8.351 8.351 0 00-.186-.195l.186.195zm.149.166l-.253.217.253-.217s0 0 0 0zm3.119.913l-.292.617-.27-.208.562-.409zm0 0l.202.155.066-.139h0a.125.125 0 00-.059-.166h0a.126.126 0 00-.166.06s0 0 0 0l-.043.09zm-.54-.414l-.186-.14m.185.14a.827.827 0 00-.018.037h0l-.129.27L14.69 9.42m1.319.924l-.543-.415m.543.415l-.143.31-.272-.207-.142.31-.272-.207.286-.621m0 0l.057-.126.303.14-.303-.14a.125.125 0 00-.227-.105h0l-.034.074m.204.157l-.204-.157m0 0l-.293-.223.024.01-.024-.01-.248-.19m.54.413l-.285.622-.271-.208.143-.31-.272-.208.114-.248m.031-.061a.792.792 0 00-.031.061m.031-.061l-.031.061m-5.99.734a.786.786 0 00.367.078m-.367-.078c-.458.53-.978.813-1.428.964a3.339 3.339 0 01-1.029.173l-.068-.001-.02-.001h-.006l-.012-.002h-.012c-.583-.01-1.068-.28-1.394-.8l4.336-.255m-.367-.078a.805.805 0 01-.08-.045m.08.045l-.08-.045m.447.123C7.88 11.742 6.2 11.627 6.12 11.62c-.699-.011-1.286-.342-1.671-.955-.194-.308-.507-.492-.84-.492h-.074l5.532.059zm-.447-.123a.795.795 0 01-.128-.1 3.013 3.013 0 01-2.339 1.03 1.392 1.392 0 01-1.21-.684h0c-.305-.486-.806-.766-1.333-.766h-.075c-.759 0-1.417.569-1.528 1.32 0 0 0 0 0 0s0 0 0 0l-.435 2.948h.253m6.795-3.748l-6.795 3.748m0 0l.43-2.912h0a1.3 1.3 0 011.28-1.106h.075c.46 0 .873.255 1.121.649l-2.906 3.37zm15.265-3.42l.458.351c.044.034.088.066.133.097l-.59-.447zm0 0l-.004.01.004-.01h0zm5.413 5.23l.002-.004h0a.125.125 0 00-.116-.17h-.071 0H10.098a1.29 1.29 0 01-.5-.1h0l-1.79-.75s0 0 0 0c-.19-.079-.39-.12-.596-.12H1.725h0-.144a.125.125 0 00-.095.207v.001a.124.124 0 00.095.043H7.212c.172 0 .34.034.5.1l14.79.794zm0 0a.125.125 0 01-.114.075h-.135 0-12.155c-.206 0-.406-.04-.596-.12h0l-1.79-.748 14.79.794zM9.051 9.209c.03.055.062.11.096.165l-.096-.165zm9.263 2.627a3.646 3.646 0 01-.83-.382l.108-.227c.248.157.516.282.798.371l.1-.318-.1.318 2.543.807a2.46 2.46 0 011.487 1.288c.178.37.26.778.245 1.184a.792.792 0 00-.246-.05 2.23 2.23 0 00-.225-1.025 2.217 2.217 0 00-1.337-1.159s0 0 0 0l-2.543-.807h0zm-4.237-2.549l.271.208.143-.31-.543-.416-.285.621.271.208.143-.31zm.236 3.15s0 0 0 0h0l.303.14-.303-.14zm-.228-.104s0 0 0 0l-.303-.14.303.14zm2.558-.661l-.604 1.276.604-1.276zm-2.672-2.953s0 0 0 0l.303.139-.303-.14zm-.227-.105v-.001l-.531-.407a.796.796 0 00-.075.13l.303.14-.303-.14-.08.172.272.208-.142.31.271.208.285-.62h0zM1.592 15.441c-.048.482.103.963.421 1.332h0c.336.388.824.612 1.338.612h16.67a2.24 2.24 0 001.849-.976h.296a2.488 2.488 0 01-2.145 1.226H3.35a2.015 2.015 0 01-1.527-.7h0a2.014 2.014 0 01-.48-1.53.795.795 0 00.237.036h.011z" fill="#A7A7A7" stroke="#A7A7A7" stroke-width=".667"/></svg>