<svg width="24" height="24" fill="none" xmlns="http://www.w3.org/2000/svg"><path fill-rule="evenodd" clip-rule="evenodd" d="M8.919 2.487C4.053 4.06 1.15 9.09 2.222 14.091a10.117 10.117 0 0 0 .658 2.013 10.023 10.023 0 0 0 10.44 5.808 10.058 10.058 0 0 0 1.76-.399c4.866-1.57 7.768-6.598 6.699-11.6a10.01 10.01 0 0 0-.658-2.014A10.02 10.02 0 0 0 10.68 2.088a10.073 10.073 0 0 0-1.761.4Zm-.834 1.644a8.802 8.802 0 0 0-4.696 9.628c.03.148.065.297.104.446a9.087 9.087 0 0 0 .436-.133 8.773 8.773 0 0 0 4.829-3.942v-.001a8.758 8.758 0 0 0 .896-6.597 8.907 8.907 0 0 0-1.57.599ZM4.672 16.854a8.793 8.793 0 0 0 8.487 3.856 10.196 10.196 0 0 1-.272-1.645 9.961 9.961 0 0 1 1.31-5.797 9.95 9.95 0 0 1 5.927-4.618 8.826 8.826 0 0 0-.796-1.501 8.791 8.791 0 0 0-8.487-3.86 10.087 10.087 0 0 1 .273 1.646 9.953 9.953 0 0 1-1.31 5.797 9.945 9.945 0 0 1-5.928 4.62 8.856 8.856 0 0 0 .796 1.502Zm11.244 3.015a8.799 8.799 0 0 0 4.695-9.625 8.947 8.947 0 0 0-.104-.446 9.854 9.854 0 0 0-.436.133 8.769 8.769 0 0 0-4.83 3.94 8.755 8.755 0 0 0-.908 6.544l.014.053a8.996 8.996 0 0 0 1.569-.599Z" fill="#A7A7A7"/></svg>