<svg width="24" height="24" fill="none" xmlns="http://www.w3.org/2000/svg"><path fill-rule="evenodd" clip-rule="evenodd" d="M18.753 11.909H6.108c-.627 0-1.134.508-1.134 1.134v6.85c0 .626.507 1.133 1.134 1.133h12.645c.626 0 1.134-.507 1.134-1.134v-6.85c0-.625-.508-1.133-1.134-1.133zm-12.645-.974A2.107 2.107 0 004 13.043v6.85C4 21.055 4.944 22 6.108 22h12.645a2.108 2.108 0 002.108-2.108v-6.85a2.108 2.108 0 00-2.108-2.107H6.108z" fill="#A7A7A7"/><path d="M13.04 10.957V2.448A.45.45 0 0113.49 2h4.974a.45.45 0 01.448.448v8.51h-.896V2.85h-4.123v1.703h1.08a.45.45 0 01.448.449.45.45 0 01-.448.448h-1.08v1.434h2.236a.45.45 0 01.448.448.45.45 0 01-.448.448h-2.236v1.39h1.08a.45.45 0 01.448.447.45.45 0 01-.448.449h-1.08v.89h-.852z" fill="#A7A7A7"/><path fill-rule="evenodd" clip-rule="evenodd" d="M10.608 10.957l-.006-5.036a.467.467 0 00-.049-.206L8.765 2.246A.45.45 0 008.366 2a.45.45 0 00-.399.246L6.175 5.711a.466.466 0 00-.05.206l-.006 5.04h.896l.007-4.61h2.684l.004 4.61h.898zM9.419 5.451L8.366 3.41l-1.053 2.04H9.42z" fill="#A7A7A7"/></svg>