<svg width="24" height="24" fill="none" xmlns="http://www.w3.org/2000/svg"><path d="M18.606 7.311h-2.213v-.885C16.393 3.947 14.357 2 11.746 2 9.134 2 7.098 3.947 7.098 6.426v.885H4.885A.888.888 0 004 8.197v13.278c0 .487.398.885.885.885h13.721a.888.888 0 00.885-.885V8.197a.888.888 0 00-.885-.886zM7.983 6.426c0-1.992 1.66-3.54 3.763-3.54 2.102 0 3.762 1.548 3.762 3.54v.885H7.983v-.885zm10.623 15.049H4.886V8.197h13.72v13.278zM9.09 13.95c-.974 0-1.77-.796-1.77-1.77s.796-1.77 1.77-1.77 1.77.796 1.77 1.77-.796 1.77-1.77 1.77zm0-2.655a.888.888 0 00-.885.885c0 .487.398.885.885.885a.888.888 0 00.885-.885.888.888 0 00-.885-.885zm5.311 7.967c-.973 0-1.77-.797-1.77-1.77 0-.974.797-1.771 1.77-1.771.974 0 1.77.797 1.77 1.77 0 .974-.796 1.77-1.77 1.77zm0-2.656a.888.888 0 00-.885.885c0 .487.398.886.885.886a.888.888 0 00.886-.886.888.888 0 00-.886-.885zM7.983 19.04a.437.437 0 01-.31-.132.428.428 0 010-.62l7.525-7.524a.428.428 0 01.62 0 .428.428 0 010 .62l-7.525 7.524a.437.437 0 01-.31.132z" fill="#A7A7A7" stroke="#A7A7A7" stroke-width=".5"/></svg>