<svg width="24" height="24" fill="none" xmlns="http://www.w3.org/2000/svg"><path d="M20.024 12.264a2.815 2.815 0 00-2.811-2.812h-.009a5.63 5.63 0 00.305-3.337l.468-.389a2.111 2.111 0 00-1.151-3.723 2.086 2.086 0 00-1.542.477l-.146.12a5.63 5.63 0 00-3.166-.97c-1.15 0-2.219.346-3.113.936l-.103-.086a2.09 2.09 0 00-1.542-.477 2.093 2.093 0 00-1.428.753 2.112 2.112 0 00.276 2.97l.388.322a5.652 5.652 0 00.301 3.434l-.044-.002a2.8 2.8 0 00-2.798 2.797 2.8 2.8 0 002.798 2.798c.189 0 .375-.025.559-.062-.001.049-.006.097-.006.146 0 .468.048.924.136 1.36a2.907 2.907 0 00-1.716.747 2.92 2.92 0 00-.964 2.034c-.04.785.229 1.538.756 2.12a2.92 2.92 0 002.183.969c1.224 0 2.29-.761 2.727-1.85a3.931 3.931 0 002.855.125c.19.42.477.792.848 1.087a2.918 2.918 0 002.165.619 2.945 2.945 0 002.586-3.259 2.922 2.922 0 00-1.094-1.967 2.927 2.927 0 00-1.205-.57c.095-.452.146-.927.146-1.415 0-.047-.005-.094-.005-.141.176.034.355.057.535.057 1.55 0 2.811-1.261 2.811-2.811zm-3.29-9.265a1.11 1.11 0 01.606 1.958l-.155.127a5.684 5.684 0 00-1.258-1.837c.227-.187.513-.274.806-.248zm-.1 4.293a4.667 4.667 0 01-4.662 4.662A4.667 4.667 0 017.31 7.292a4.667 4.667 0 014.662-4.661 4.667 4.667 0 014.662 4.661zM6.7 4.957a1.107 1.107 0 011.356-1.748 5.686 5.686 0 00-1.272 1.818l-.084-.07zm.007 9.118a1.8 1.8 0 01-1.798-1.797 1.8 1.8 0 011.798-1.798c.24 0 .47.048.687.139.26.357.561.682.896.97a6.258 6.258 0 00-.921 2.36c-.21.083-.435.126-.662.126zm.849 7.312a1.93 1.93 0 01-1.343-.637 1.929 1.929 0 01-.499-1.4 1.934 1.934 0 011.964-1.841c.39 1.043 1.029 1.92 1.826 2.517a1.948 1.948 0 01-1.948 1.36zm.704-6.228c0-1.102.298-2.146.844-2.988a5.626 5.626 0 002.868.783 5.625 5.625 0 002.867-.782c.546.841.845 1.883.845 2.987 0 2.6-1.665 4.716-3.712 4.716S8.26 17.759 8.26 15.159zm8.86 2.768c.407.323.663.784.723 1.299a1.944 1.944 0 01-1.707 2.15 1.924 1.924 0 01-1.429-.408 1.93 1.93 0 01-.569-.735c.93-.587 1.678-1.538 2.117-2.697.313.055.61.188.866.391zm-1.467-6.338a5.7 5.7 0 00.934-1.024 1.813 1.813 0 012.437 1.698 1.814 1.814 0 01-2.447 1.697 6.25 6.25 0 00-.924-2.371z" fill="#A7A7A7"/><path d="M11.972 10.932a1.01 1.01 0 100-2.02 1.01 1.01 0 000 2.02zM13.962 7.292a.663.663 0 100-1.326.663.663 0 000 1.326zM9.982 7.292a.663.663 0 100-1.326.663.663 0 000 1.326z" fill="#A7A7A7"/></svg>