<svg width="24" height="24" fill="none" xmlns="http://www.w3.org/2000/svg"><path d="M5.785 11.422c-.959 0-1.738.778-1.738 1.735 0 .959.78 1.738 1.738 1.738a1.74 1.74 0 001.738-1.738c0-.957-.78-1.735-1.738-1.735zm0 2.54a.804.804 0 110-1.605.804.804 0 010 1.605zM17.235 11.422c-.958 0-1.737.778-1.737 1.735 0 .959.779 1.738 1.737 1.738a1.74 1.74 0 001.738-1.738c0-.957-.78-1.735-1.738-1.735zm0 2.54a.804.804 0 110-1.605.804.804 0 010 1.605z" fill="#A7A7A7"/><path d="M20.546 7.812h-1.638l-.697-1.537A3.885 3.885 0 0014.679 4H8.34A3.886 3.886 0 004.81 6.275l-.693 1.527h-1.65c-.395 0-.764.153-1.034.427a1.468 1.468 0 001.035 2.505h.332a5.139 5.139 0 00-.333 1.806v5.91c0 .773.63 1.402 1.403 1.402h1.04c.774 0 1.404-.629 1.404-1.402v-1.509h10.395v1.51c0 .772.63 1.401 1.404 1.401h1.04c.773 0 1.402-.629 1.402-1.402v-5.91c0-.615-.116-1.238-.336-1.816h.328a1.457 1.457 0 000-2.911zM5.659 6.661a2.95 2.95 0 012.682-1.728h6.338a2.95 2.95 0 012.682 1.728l1.51 3.328a126.611 126.611 0 00-4.989-.194c-5.991.038-3.827 0-6.476.038-1.087.034-2.171.085-3.253.148l1.506-3.32zM1.933 9.268c0-.144.055-.277.159-.379a.52.52 0 01.374-.154h1.227l-.484 1.066h-.743a.533.533 0 01-.533-.533zM5.38 18.45a.47.47 0 01-.472.469h-1.04a.47.47 0 01-.468-.47v-1.508h1.98v1.509zM3.4 16.008v-3.467c0-.546.115-1.095.326-1.602a126.253 126.253 0 0115.572.008c.208.504.323 1.05.323 1.594v3.467H3.4zm16.22 2.442a.47.47 0 01-.468.469h-1.04a.47.47 0 01-.472-.47v-1.508h1.98v1.509zm1.295-8.814a.52.52 0 01-.37.154h-.739l-.474-1.044h1.214a.522.522 0 01.37.89z" fill="#A7A7A7"/></svg>