<svg width="23" height="23" viewBox="0 0 23 23" fill="none" xmlns="http://www.w3.org/2000/svg">
<path d="M14.654 18.4747L14.3314 10.2869L16.0754 8.40008C16.3507 8.10221 16.5621 7.74096 16.6905 7.34048L16.7633 7.06739C16.8769 6.71528 16.779 6.34142 16.5077 6.0907C16.2365 5.83998 15.8561 5.77179 15.5288 5.90674L15.2331 6.01213C14.8583 6.1662 14.5152 6.40483 14.2395 6.70315L12.4955 8.59L4.30995 8.91214C3.89309 8.92854 3.50776 9.10602 3.22437 9.41262L2.72718 9.95055C2.64954 10.0345 2.62416 10.1541 2.66071 10.2619C2.69681 10.3701 2.78933 10.4506 2.90242 10.47L9.78972 11.6961C9.19056 12.43 8.7126 13.0631 8.13122 13.8339L7.53605 14.6243L4.94793 14.2007C4.84335 14.184 4.73861 14.2199 4.66734 14.2971L4.24312 14.756C4.17907 14.8253 4.14965 14.9207 4.1635 15.0144C4.1774 15.1089 4.23325 15.1912 4.31472 15.2384L6.74503 16.6532L8.34639 18.9648C8.35951 18.9837 8.37434 19.0008 8.39087 19.0161C8.44274 19.064 8.50934 19.0932 8.58119 19.0984C8.67607 19.1044 8.76883 19.0676 8.83288 18.9983L9.2571 18.5393C9.32837 18.4622 9.35641 18.3545 9.33073 18.2524L8.70381 15.707L9.44707 15.0492C10.1689 14.41 10.7621 13.8843 11.4467 13.2293L13.211 19.998C13.2398 20.1097 13.3271 20.1947 13.437 20.2222C13.5478 20.2506 13.665 20.2159 13.7426 20.1319L14.2398 19.594C14.5232 19.2874 14.6704 18.8898 14.654 18.4747Z" stroke="#A7A7A7"/>
</svg>
