<svg xmlns="http://www.w3.org/2000/svg" width="20" height="23" fill="none"><path fill="#242424" fill-rule="evenodd" d="M2.137 6.05 9.653 1.75l7.516 4.302-7.516 4.302L2.137 6.05ZM9.086.346c.204-.116.397-.163.568-.157.17-.006.363.04.567.158l8.56 4.899c.372.213.52.51.511.781.005.046.008.094.008.143v9.799c0 .058-.004.113-.01.165.026.281-.119.599-.51.822l-8.56 4.9c-.307.176-.65.205-.908.103a1.31 1.31 0 0 1-.226-.103l-8.56-4.9c-.396-.226-.54-.55-.508-.833a1.357 1.357 0 0 1-.008-.154V6.03c-.013-.268.129-.566.49-.786l8.586-4.9ZM17.8 15.788v-8.37l-7.42 4.247v8.37l7.42-4.247ZM1.51 7.42l7.37 4.218v8.37L1.51 15.79V7.42Z" clip-rule="evenodd"/></svg>