<svg width="24" height="24" fill="none" xmlns="http://www.w3.org/2000/svg"><path fill-rule="evenodd" clip-rule="evenodd" d="M17.784 3.86 20.5 9.958 11.41 20.79l-9.193-7.714 9.09-10.833 6.477 1.616Zm-7.437-2.805a.954.954 0 0 1 .967-.303l7.017 1.75c.308.077.566.294.695.583l2.942 6.607c.151.34.1.729-.13 1.005L12.25 22.122c-.34.405-.96.446-1.382.091L.91 13.857c-.423-.355-.49-.972-.15-1.377l9.587-11.425Zm3.24 7.805c.577.483 1.425.42 1.896-.142.471-.561.387-1.408-.189-1.89-.576-.484-1.424-.42-1.895.141-.471.562-.387 1.408.189 1.891Z" fill="#000"/></svg>