<svg width="24" height="24" fill="none" xmlns="http://www.w3.org/2000/svg"><path fill-rule="evenodd" clip-rule="evenodd" d="M20.384 3.654a.248.248 0 0 0-.292-.185L6.69 6.139a.244.244 0 0 0-.194.287l.32 1.593a.732.732 0 0 1-.587.86.745.745 0 0 1-.875-.577l-.32-1.593c-.185-.922.423-1.817 1.36-2.004l13.403-2.67c.927-.185 1.835.392 2.042 1.3l2.12 9.293c.212.933-.397 1.856-1.351 2.046l-1.56.311a.745.745 0 0 1-.88-.571.732.732 0 0 1 .583-.863l1.56-.31a.244.244 0 0 0 .194-.293l-2.12-9.294Z" fill="#000"/><path fill-rule="evenodd" clip-rule="evenodd" d="M1.5 11.5v9h15v-9h-15ZM1 10a1 1 0 0 0-1 1v10a1 1 0 0 0 1 1h16a1 1 0 0 0 1-1V11a1 1 0 0 0-1-1H1Z" fill="#000"/><path d="M3 18.75a.75.75 0 0 1 .75-.75h2.5a.75.75 0 0 1 0 1.5h-2.5a.75.75 0 0 1-.75-.75Z" fill="#000"/></svg>