<svg width="22" height="19" fill="none" xmlns="http://www.w3.org/2000/svg"><path fill-rule="evenodd" clip-rule="evenodd" d="M6.62 1.54c-2.612 0-4.583 1.953-4.583 4.45 0 1.498.991 3.28 2.778 5.328C6.458 13.2 8.653 15.179 11 17.212c2.347-2.034 4.542-4.012 6.185-5.896 1.787-2.047 2.778-3.829 2.778-5.328 0-2.496-1.97-4.448-4.584-4.448-1.432 0-2.875.662-3.8 1.728a.767.767 0 0 1-1.159 0C9.496 2.203 8.053 1.54 6.62 1.54ZM.5 5.99C.5 2.601 3.2 0 6.62 0A6.7 6.7 0 0 1 11 1.673 6.701 6.701 0 0 1 15.38 0c3.42 0 6.12 2.602 6.12 5.99 0 2.105-1.344 4.262-3.158 6.342-1.841 2.11-4.315 4.302-6.84 6.482a.767.767 0 0 1-1.003 0c-2.526-2.18-5-4.371-6.84-6.482C1.843 10.252.5 8.095.5 5.989Z" fill="#000"/></svg>