<svg width="19" height="21" fill="none" xmlns="http://www.w3.org/2000/svg"><path fill-rule="evenodd" clip-rule="evenodd" d="M10.198 1.745a1.009 1.009 0 0 0-1.396 0c-.117.11-.201.242-.255.383l-.13.338-.347.102c-2.19.644-3.978 2.82-3.978 6.153 0 2.435-.486 3.954-1.518 5.09-.165.182-.566.556-.818.79l-.019.017-.002.003-.006.005a57.732 57.732 0 0 0-.224.21l-.043.045v1.996h16.076V14.88l-.044-.046-.062-.06c-.034-.031-.077-.07-.126-.117l-.029-.026-.024-.023a19.31 19.31 0 0 1-.827-.801c-1.03-1.14-1.518-2.659-1.518-5.087 0-3.323-1.791-5.505-3.98-6.152l-.346-.102-.129-.338a1.038 1.038 0 0 0-.255-.384Zm8.341 12.067.461.472v4.058h-5.573a4.225 4.225 0 0 1-1.713 2.028c-1.359.84-3.069.84-4.428 0-.859-.53-1.46-1.158-1.773-2.028H0v-4.058l.46-.473.002-.001c.042-.043.145-.139.251-.238l.024-.022c.28-.26.639-.596.756-.725.693-.763 1.138-1.864 1.138-4.104 0-3.749 1.977-6.498 4.71-7.456.12-.211.271-.408.455-.582.957-.91 2.45-.91 3.407 0 .184.174.337.372.456.584 2.73.961 4.71 3.714 4.71 7.454 0 2.23.445 3.335 1.14 4.103.118.13.478.468.756.728m-11.114 4.79c.203.279.493.529.902.781.889.55 2.005.55 2.895 0 .337-.209.615-.475.828-.781H7.151Z" fill="#000"/></svg>