<svg width="24" height="24" fill="none" xmlns="http://www.w3.org/2000/svg"><path fill-rule="evenodd" clip-rule="evenodd" d="M3.003 6.7C2.942 5.779 3.726 5 4.714 5h14.572c.986 0 1.77.775 1.711 1.694l-.81 12.8c-.053.846-.803 1.506-1.71 1.506H5.571c-.906 0-1.655-.657-1.711-1.5L3.003 6.7Zm1.711-.329c-.14 0-.253.112-.244.243l.857 12.8c.008.12.115.215.245.215h12.904c.13 0 .237-.095.245-.216l.81-12.8c.007-.13-.104-.242-.245-.242H4.714Z" fill="#000"/><path fill-rule="evenodd" clip-rule="evenodd" d="M7 4.941C7 2.212 9.239 0 12 0s5 2.212 5 4.941v2.353a.71.71 0 0 1-.714.706.71.71 0 0 1-.715-.706V4.941c0-1.95-1.599-3.53-3.571-3.53-1.972 0-3.571 1.58-3.571 3.53v2.353A.71.71 0 0 1 7.714 8 .71.71 0 0 1 7 7.294V4.941Z" fill="#000"/></svg>