<svg width="24" height="24" fill="none" xmlns="http://www.w3.org/2000/svg"><path fill-rule="evenodd" clip-rule="evenodd" d="M10.572 2.827c.683-1.103 2.173-1.103 2.856 0l3.407 5.5a.234.234 0 0 0 .327.083l2.75-1.734c1.327-.837 2.921.492 2.527 2.108l-2.64 10.821c-.201.823-.885 1.395-1.665 1.395H5.867c-.781 0-1.465-.572-1.665-1.395L1.56 8.784c-.394-1.616 1.2-2.945 2.527-2.108l2.75 1.734c.112.07.255.034.327-.082l3.407-5.501Zm1.632.9a.235.235 0 0 0-.408 0l-3.407 5.5c-.507.818-1.507 1.07-2.29.575L3.348 8.07c-.19-.12-.417.07-.361.301l2.64 10.822a.25.25 0 0 0 .239.199h12.267a.25.25 0 0 0 .237-.2l2.641-10.82c.056-.232-.171-.422-.361-.302l-2.75 1.733c-.783.494-1.783.243-2.29-.574l-3.407-5.5Z" fill="#000"/></svg>