<svg xmlns="http://www.w3.org/2000/svg" width="24" height="18" fill="none"><path fill="#242424" fill-rule="evenodd" d="M20.5 10.937A2 2 0 0 0 20 7h-2a2 2 0 1 0 0 4h2c.173 0 .34-.022.5-.063Zm0-5.402A3.53 3.53 0 0 0 20 5.5h-2a3.5 3.5 0 1 0 0 7h2c.17 0 .337-.012.5-.035V15a1.5 1.5 0 0 1-1.5 1.5H3A1.5 1.5 0 0 1 1.5 15V3A1.5 1.5 0 0 1 3 1.5h16A1.5 1.5 0 0 1 20.5 3v2.535Zm1.5.592V3a3 3 0 0 0-3-3H3a3 3 0 0 0-3 3v12a3 3 0 0 0 3 3h16a3 3 0 0 0 3-3v-3.127A3.496 3.496 0 0 0 23.5 9c0-1.19-.593-2.24-1.5-2.873Z" clip-rule="evenodd"/></svg>