<svg width="28" height="29" viewBox="0 0 28 29" fill="none" xmlns="http://www.w3.org/2000/svg">
<path d="M4.08788 28.594H3.14672L1.65336 26.5387H0.867743V28.594H0.0666504V23.1873H1.99561C2.36895 23.1873 2.70335 23.2588 2.99896 23.402C3.29449 23.5451 3.52263 23.7445 3.68338 24.0002C3.84933 24.2507 3.93227 24.5395 3.93227 24.8667C3.93227 25.2758 3.80526 25.626 3.55116 25.9175C3.29713 26.2038 2.95745 26.393 2.53226 26.485L4.08788 28.594ZM0.867743 23.9158V25.8177H1.99561C2.32744 25.8177 2.59452 25.7308 2.7967 25.557C3.00409 25.378 3.10786 25.148 3.10786 24.8667C3.10786 24.5856 3.00409 24.358 2.7967 24.1842C2.59452 24.0053 2.32744 23.9158 1.99561 23.9158H0.867743Z" fill="white"/>
<path d="M6.21366 28.6707C5.92847 28.6707 5.6718 28.6016 5.44366 28.4636C5.21552 28.3205 5.03659 28.1261 4.90701 27.8808C4.77735 27.6303 4.71252 27.349 4.71252 27.0371V24.629H5.47475V26.9758C5.47475 27.2775 5.56033 27.5229 5.73142 27.712C5.90258 27.9012 6.12294 27.9958 6.39259 27.9958C6.67258 27.9958 6.90593 27.8987 7.09256 27.7044C7.27927 27.5101 7.37262 27.2673 7.37262 26.9758V24.629H8.13485V28.594H7.59035L7.41149 27.9958C7.28183 28.2106 7.11074 28.3767 6.89815 28.4943C6.69069 28.6119 6.46255 28.6707 6.21366 28.6707Z" fill="white"/>
<path d="M10.9764 28.6706C10.4734 28.6706 10.0353 28.5428 9.66192 28.2871C9.29372 28.0264 9.04226 27.6736 8.90747 27.2288L9.67747 27.106C9.8278 27.3924 10.0067 27.6046 10.2141 27.7426C10.4216 27.8755 10.6756 27.942 10.9764 27.942C11.2823 27.942 11.5312 27.8755 11.723 27.7426C11.9149 27.6046 12.0109 27.4179 12.0109 27.1827C12.0109 27.0089 11.9564 26.8632 11.8475 26.7456C11.7438 26.6281 11.6116 26.5335 11.4508 26.4619C11.2901 26.3903 11.0801 26.311 10.8208 26.2241C10.4734 26.1116 10.1882 25.9991 9.96523 25.8867C9.7423 25.7742 9.55303 25.6157 9.39749 25.4112C9.24708 25.2016 9.17191 24.9357 9.17191 24.6136C9.17191 24.312 9.24708 24.0486 9.39749 23.8237C9.55303 23.5936 9.76562 23.4172 10.0353 23.2945C10.3049 23.1718 10.6057 23.1105 10.9375 23.1105C11.399 23.1105 11.7956 23.2306 12.1275 23.4709C12.4594 23.7061 12.6953 24.0307 12.8353 24.4449L12.0808 24.5676C11.9771 24.3324 11.8294 24.1535 11.6375 24.0307C11.4457 23.9029 11.2201 23.839 10.9608 23.839C10.6808 23.839 10.45 23.9055 10.2686 24.0384C10.0871 24.1663 9.99632 24.3426 9.99632 24.5676C9.99632 24.7363 10.0482 24.8795 10.1519 24.997C10.2608 25.1147 10.3931 25.2093 10.5486 25.2808C10.7093 25.3524 10.9219 25.4342 11.1864 25.5262C11.5234 25.6387 11.8034 25.7538 12.0264 25.8713C12.2546 25.9838 12.4464 26.1449 12.602 26.3545C12.7575 26.5641 12.8353 26.8274 12.8353 27.1444C12.8353 27.4512 12.7523 27.7196 12.5864 27.9497C12.4256 28.1798 12.2027 28.3587 11.9175 28.4865C11.6375 28.6092 11.3238 28.6706 10.9764 28.6706Z" fill="white"/>
<path d="M16.055 27.9344L15.985 28.5939H15.2772C14.8573 28.5939 14.5383 28.4916 14.3205 28.2872C14.1028 28.0827 13.9939 27.7887 13.9939 27.4052V25.2962H13.3016V24.6289H13.9939L14.2039 23.4786H14.7561V24.6289H15.985V25.2962H14.7561V27.4052C14.7561 27.758 14.9299 27.9344 15.2772 27.9344H16.055Z" fill="white"/>
<path d="M18.5969 28.6707C18.1873 28.6707 17.8217 28.5837 17.5002 28.4099C17.1787 28.236 16.9273 27.9932 16.7458 27.6814C16.5643 27.3695 16.4736 27.0142 16.4736 26.6153C16.4736 26.2165 16.5643 25.8612 16.7458 25.5493C16.9273 25.2374 17.1787 24.9946 17.5002 24.8208C17.8217 24.6418 18.1873 24.5524 18.5969 24.5524C19.0066 24.5524 19.3721 24.6418 19.6936 24.8208C20.0151 24.9946 20.2666 25.2374 20.4481 25.5493C20.6296 25.8612 20.7203 26.2165 20.7203 26.6153C20.7203 27.0142 20.6296 27.3695 20.4481 27.6814C20.2666 27.9932 20.0151 28.236 19.6936 28.4099C19.3721 28.5837 19.0066 28.6707 18.5969 28.6707ZM18.5969 27.9804C18.991 27.9804 19.31 27.8552 19.5536 27.6046C19.8025 27.3541 19.927 27.0244 19.927 26.6153C19.927 26.2063 19.8025 25.8765 19.5536 25.626C19.31 25.3704 18.991 25.2426 18.5969 25.2426C18.2028 25.2426 17.884 25.3704 17.6402 25.626C17.3965 25.8765 17.2747 26.2063 17.2747 26.6153C17.2747 27.0192 17.3965 27.349 17.6402 27.6046C17.884 27.8552 18.2028 27.9804 18.5969 27.9804Z" fill="white"/>
<path d="M21.5378 28.594V24.629H22.09L22.2534 25.1966C22.3726 24.9972 22.5204 24.854 22.6967 24.7671C22.873 24.6751 23.083 24.629 23.3267 24.629H23.5134L23.5756 25.35H23.14C22.8601 25.35 22.65 25.4292 22.51 25.5877C22.37 25.7462 22.3 25.9609 22.3 26.2319V28.594H21.5378Z" fill="white"/>
<path d="M27.9333 26.5847C27.9333 26.6869 27.9308 26.7662 27.9255 26.8224H24.6044C24.6459 27.1752 24.7859 27.4564 25.0243 27.666C25.2629 27.8756 25.5662 27.9804 25.9344 27.9804C26.1885 27.9804 26.414 27.9319 26.611 27.8347C26.8133 27.7325 26.9663 27.5995 27.07 27.4359L27.7856 27.551C27.63 27.9088 27.3785 28.1849 27.0311 28.3793C26.6889 28.5735 26.3077 28.6707 25.8877 28.6707C25.4885 28.6707 25.1307 28.5837 24.8144 28.4099C24.498 28.231 24.2518 27.9855 24.0755 27.6737C23.8992 27.3618 23.811 27.009 23.811 26.6153C23.811 26.2165 23.8992 25.8612 24.0755 25.5493C24.2518 25.2374 24.4955 24.9946 24.8066 24.8208C25.1177 24.6418 25.4729 24.5524 25.8721 24.5524C26.2662 24.5524 26.6188 24.6418 26.93 24.8208C27.2463 24.9946 27.4926 25.2374 27.6689 25.5493C27.8452 25.8561 27.9333 26.2012 27.9333 26.5847ZM25.8721 25.2196C25.5662 25.2196 25.3018 25.309 25.0788 25.488C24.861 25.6669 24.7158 25.9072 24.6432 26.2089H27.1011C27.0337 25.9123 26.8885 25.6746 26.6655 25.4957C26.4477 25.3116 26.1833 25.2196 25.8721 25.2196Z" fill="white"/>
<path d="M6.43722 16.2005C7.67435 17.4204 9.66557 17.4204 13.648 17.4204H14.352C18.3345 17.4204 20.3257 17.4204 21.5628 16.2005C22.8 14.9806 22.8 13.0172 22.8 9.09054V8.39636C22.8 4.46966 22.8 2.5063 21.5628 1.28648C20.3257 0.0666501 18.3345 0.0666504 14.352 0.0666504H13.648C9.66557 0.0666504 7.67435 0.0666501 6.43722 1.28648C5.20001 2.5063 5.20001 4.46966 5.20001 8.39636V9.09054C5.20001 13.0172 5.20001 14.9806 6.43722 16.2005Z" fill="#0077FF"/>
<path fill-rule="evenodd" clip-rule="evenodd" d="M18.7885 11.6009L17.5993 11.308C17.4561 11.2675 17.3549 11.1404 17.3499 10.9928L17.2015 6.67716C17.1586 6.10597 16.7285 5.65167 16.2791 5.51791C16.2539 5.51035 16.2269 5.52047 16.212 5.54189C16.1969 5.56367 16.2027 5.59373 16.2239 5.60994C16.3349 5.69464 16.6403 5.97103 16.6403 6.44777L16.6394 12.0903C16.6394 12.6352 16.1172 13.0348 15.5787 12.9021L14.3711 12.6047C14.2372 12.5585 14.1442 12.4356 14.1393 12.2938L13.9909 7.9778C13.948 7.40661 13.518 6.95231 13.0686 6.81855C13.0434 6.81099 13.0164 6.82111 13.0014 6.84253C12.9863 6.86431 12.9921 6.89437 13.0133 6.91058C13.1243 6.99528 13.4297 7.27167 13.4297 7.74841L13.4288 12.4518L13.4295 13.3916C13.4295 13.9364 12.9074 14.336 12.3687 14.2034L8.95791 13.3632C8.48374 13.2464 8.15125 12.8281 8.15125 12.3485V6.69711C8.15125 6.15224 8.67338 5.75265 9.21201 5.88531L11.3612 6.4147V5.39596C11.3612 4.85109 11.8833 4.45149 12.4219 4.58415L14.571 5.11347V4.09473C14.571 3.54986 15.0931 3.15027 15.6318 3.28293L19.0426 4.12304C19.5167 4.23986 19.8492 4.65807 19.8492 5.13775V10.7891C19.8492 11.334 19.327 11.7336 18.7885 11.6009Z" fill="white"/>
</svg>
